<svg xmlns="http://www.w3.org/2000/svg" width="1000.298" height="59.266" viewBox="0 0 1000.298 59.266">
    <g data-name="Group 287">
        <g data-name="Group 213">
            <path data-name="Rectangle 182" transform="rotate(19.911 250.617 1427.806)" style="fill:#e40d2d" d="M0 0h2.023v62.3H0z"/>
            <path data-name="Rectangle 183" transform="rotate(19.911 242.046 1378.973)" style="fill:#e40d2d" d="M0 0h2.023v62.3H0z"/>
            <path data-name="Rectangle 184" transform="rotate(19.911 233.474 1330.137)" style="fill:#e40d2d" d="M0 0h2.023v62.3H0z"/>
            <path data-name="Rectangle 185" transform="rotate(19.911 224.902 1281.304)" style="fill:#e40d2d" d="M0 0h2.023v62.3H0z"/>
            <path data-name="Rectangle 186" transform="rotate(19.911 216.33 1232.468)" style="fill:#e40d2d" d="M0 0h2.023v62.3H0z"/>
            <path data-name="Rectangle 187" transform="rotate(19.91 499.198 2844.153)" style="fill:#e40d2d" d="M0 0h2.023v62.3H0z"/>
            <path data-name="Rectangle 188" transform="rotate(19.91 490.626 2795.315)" style="fill:#e40d2d" d="M0 0h2.023v62.3H0z"/>
            <path data-name="Rectangle 189" transform="rotate(19.91 482.054 2746.476)" style="fill:#e40d2d" d="M0 0h2.023v62.3H0z"/>
            <path data-name="Rectangle 190" transform="rotate(19.91 473.483 2697.643)" style="fill:#e40d2d" d="M0 0h2.023v62.3H0z"/>
            <path data-name="Rectangle 191" transform="rotate(19.91 464.912 2648.808)" style="fill:#e40d2d" d="M0 0h2.023v62.3H0z"/>
            <path data-name="Rectangle 192" transform="rotate(19.91 456.339 2599.966)" style="fill:#e40d2d" d="M0 0h2.023v62.3H0z"/>
            <path data-name="Rectangle 193" transform="rotate(19.91 447.768 2551.13)" style="fill:#e40d2d" d="M0 0h2.023v62.3H0z"/>
            <path data-name="Rectangle 194" transform="rotate(19.91 439.196 2502.292)" style="fill:#e40d2d" d="M0 0h2.023v62.3H0z"/>
            <path data-name="Rectangle 195" transform="rotate(19.91 430.624 2453.456)" style="fill:#e40d2d" d="M0 0h2.023v62.3H0z"/>
            <path data-name="Rectangle 196" transform="rotate(19.91 422.052 2404.618)" style="fill:#e40d2d" d="M0 0h2.023v62.3H0z"/>
            <path data-name="Rectangle 197" transform="rotate(19.91 413.48 2355.782)" style="fill:#e40d2d" d="M0 0h2.023v62.3H0z"/>
            <path data-name="Rectangle 198" transform="rotate(19.91 404.909 2306.947)" style="fill:#e40d2d" d="M0 0h2.023v62.3H0z"/>
            <path data-name="Rectangle 199" transform="rotate(19.91 396.337 2258.108)" style="fill:#e40d2d" d="M0 0h2.023v62.3H0z"/>
            <path data-name="Rectangle 200" transform="rotate(19.91 387.765 2209.273)" style="fill:#e40d2d" d="M0 0h2.023v62.3H0z"/>
            <path data-name="Rectangle 201" transform="rotate(19.91 379.193 2160.434)" style="fill:#e40d2d" d="M0 0h2.023v62.3H0z"/>
            <path data-name="Rectangle 202" transform="rotate(19.91 370.621 2111.596)" style="fill:#e40d2d" d="M0 0h2.023v62.3H0z"/>
            <path data-name="Rectangle 203" transform="rotate(19.91 362.05 2062.757)" style="fill:#e40d2d" d="M0 0h2.023v62.3H0z"/>
            <path data-name="Rectangle 204" transform="rotate(19.91 353.478 2013.924)" style="fill:#e40d2d" d="M0 0h2.023v62.3H0z"/>
            <path data-name="Rectangle 205" transform="rotate(19.91 344.906 1965.086)" style="fill:#e40d2d" d="M0 0h2.023v62.3H0z"/>
            <path data-name="Rectangle 206" transform="rotate(19.91 336.334 1916.247)" style="fill:#e40d2d" d="M0 0h2.023v62.3H0z"/>
            <path data-name="Rectangle 207" transform="rotate(19.91 327.763 1867.412)" style="fill:#e40d2d" d="M0 0h2.023v62.3H0z"/>
            <path data-name="Rectangle 208" transform="rotate(19.91 319.191 1818.573)" style="fill:#e40d2d" d="M0 0h2.023v62.3H0z"/>
            <path data-name="Rectangle 209" transform="rotate(19.91 310.62 1769.737)" style="fill:#e40d2d" d="M0 0h2.023v62.3H0z"/>
            <path data-name="Rectangle 210" transform="rotate(19.91 302.048 1720.902)" style="fill:#e40d2d" d="M0 0h2.023v62.3H0z"/>
            <path data-name="Rectangle 211" transform="rotate(19.91 293.476 1672.063)" style="fill:#e40d2d" d="M0 0h2.023v62.3H0z"/>
            <path data-name="Rectangle 212" transform="rotate(19.91 284.904 1623.228)" style="fill:#e40d2d" d="M0 0h2.023v62.3H0z"/>
            <path data-name="Rectangle 213" transform="rotate(19.91 276.332 1574.39)" style="fill:#e40d2d" d="M0 0h2.023v62.3H0z"/>
            <path data-name="Rectangle 214" transform="rotate(19.91 267.761 1525.554)" style="fill:#e40d2d" d="M0 0h2.023v62.3H0z"/>
            <path data-name="Rectangle 215" transform="rotate(19.911 259.189 1476.64)" style="fill:#e40d2d" d="M0 0h2.023v62.3H0z"/>
            <path data-name="Rectangle 216" transform="rotate(19.911 207.759 1183.635)" style="fill:#e40d2d" d="M0 0h2.023v62.3H0z"/>
            <path data-name="Rectangle 217" transform="rotate(19.911 199.187 1134.799)" style="fill:#e40d2d" d="M0 0h2.023v62.3H0z"/>
            <path data-name="Rectangle 218" transform="rotate(19.911 190.615 1085.963)" style="fill:#e40d2d" d="M0 0h2.023v62.3H0z"/>
            <path data-name="Rectangle 219" transform="rotate(19.911 182.044 1037.132)" style="fill:#e40d2d" d="M0 0h2.023v62.3H0z"/>
            <path data-name="Rectangle 220" transform="rotate(19.911 173.471 988.294)" style="fill:#e40d2d" d="M0 0h2.023v62.3H0z"/>
            <path data-name="Rectangle 221" transform="rotate(19.911 164.9 939.46)" style="fill:#e40d2d" d="M0 0h2.023v62.3H0z"/>
            <path data-name="Rectangle 222" transform="rotate(19.911 156.328 890.625)" style="fill:#e40d2d" d="M0 0h2.023v62.3H0z"/>
            <path data-name="Rectangle 223" transform="rotate(19.911 147.756 841.791)" style="fill:#e40d2d" d="M0 0h2.023v62.3H0z"/>
            <path data-name="Rectangle 224" transform="rotate(19.911 139.184 792.955)" style="fill:#e40d2d" d="M0 0h2.023v62.3H0z"/>
            <path data-name="Rectangle 225" transform="rotate(19.911 130.613 744.122)" style="fill:#e40d2d" d="M0 0h2.023v62.3H0z"/>
            <path data-name="Rectangle 226" transform="rotate(19.911 122.041 695.29)" style="fill:#e40d2d" d="M0 0h2.023v62.3H0z"/>
            <path data-name="Rectangle 227" transform="rotate(19.911 113.47 646.453)" style="fill:#e40d2d" d="M0 0h2.023v62.3H0z"/>
            <path data-name="Rectangle 228" transform="rotate(19.911 104.898 597.62)" style="fill:#e40d2d" d="M0 0h2.023v62.3H0z"/>
            <path data-name="Rectangle 229" transform="rotate(19.911 96.326 548.784)" style="fill:#e40d2d" d="M0 0h2.023v62.3H0z"/>
            <path data-name="Rectangle 230" transform="rotate(19.911 87.754 499.95)" style="fill:#e40d2d" d="M0 0h2.023v62.3H0z"/>
            <path data-name="Rectangle 231" transform="rotate(19.911 79.183 451.118)" style="fill:#e40d2d" d="M0 0h2.023v62.3H0z"/>
            <path data-name="Rectangle 232" transform="rotate(19.911 70.611 402.282)" style="fill:#e40d2d" d="M0 0h2.023v62.3H0z"/>
            <path data-name="Rectangle 233" transform="rotate(19.911 62.039 353.446)" style="fill:#e40d2d" d="M0 0h2.023v62.3H0z"/>
            <path data-name="Rectangle 234" transform="rotate(19.911 53.467 304.61)" style="fill:#e40d2d" d="M0 0h2.023v62.3H0z"/>
            <path data-name="Rectangle 235" transform="rotate(19.911 44.895 255.777)" style="fill:#e40d2d" d="M0 0h2.023v62.3H0z"/>
            <path data-name="Rectangle 236" transform="rotate(19.911 36.323 206.94)" style="fill:#e40d2d" d="M0 0h2.023v62.3H0z"/>
            <path data-name="Rectangle 237" transform="rotate(19.911 27.752 158.107)" style="fill:#e40d2d" d="M0 0h2.023v62.3H0z"/>
            <path data-name="Rectangle 238" transform="rotate(19.911 19.18 109.274)" style="fill:#e40d2d" d="M0 0h2.023v62.3H0z"/>
            <path data-name="Rectangle 239" transform="rotate(19.911 10.608 60.438)" style="fill:#e40d2d" d="M0 0h2.023v62.3H0z"/>
        </g>
    </g>
</svg>
