<svg data-name="Group 212" xmlns="http://www.w3.org/2000/svg" width="190.425" height="41.918" viewBox="0 0 190.425 41.918">
    <path data-name="Path 364" d="M80.906 37.476c0-1.236-.852-1.858-2.288-1.858h-2.116v6.222h1.044v-2.525h1.21l1.2 2.525h1.15l-1.322-2.7a1.622 1.622 0 0 0 1.122-1.664zm-2.36.938h-1v-1.885h1c.885 0 1.318.243 1.318.947s-.433.939-1.318.939z"/>
    <path data-name="Path 365" d="M82.914 41.84h3.81v-.9h-2.768v-1.869h2.5v-.9h-2.5V36.53h2.768v-.911h-3.81z"/>
    <path data-name="Path 366" d="m62.171 35.619-2.164 6.221h1.119l.423-1.288h2.246l.424 1.288h1.109l-2.164-6.221zm-.334 4.033.83-2.517.83 2.517z"/>
    <path data-name="Path 367" d="M38.399 39.559h1.234c-.072.981-.468 1.449-1.26 1.449-.829 0-1.28-.54-1.28-1.882v-.792c0-1.341.451-1.881 1.28-1.881a1.192 1.192 0 0 1 1.252 1.1h1.01a2.129 2.129 0 0 0-2.262-2.009c-1.387 0-2.321.839-2.321 2.838v.747c0 1.954.934 2.793 2.321 2.793s2.289-.839 2.289-2.793v-.478H38.4z"/>
    <path data-name="Path 368" d="M43.726 35.619h-1.043v6.221h3.81v-.9h-2.767z"/>
    <path data-name="Path 369" d="M67.983 35.619h-1.041v6.221h3.81v-.9h-2.769z"/>
    <path data-name="Path 370" d="M49.987 35.541c-1.386 0-2.32.839-2.32 2.793v.792c0 1.954.934 2.793 2.32 2.793s2.33-.839 2.33-2.793v-.792c0-1.954-.934-2.793-2.33-2.793zm1.287 3.585c0 1.342-.458 1.882-1.287 1.882s-1.278-.54-1.278-1.882v-.792c0-1.341.45-1.881 1.278-1.881s1.287.54 1.287 1.881z"/>
    <path data-name="Path 371" d="M57.641 38.581a1.4 1.4 0 0 0 .908-1.351c0-1.071-.746-1.611-2.208-1.611h-2v6.221h2.2c1.615 0 2.207-.846 2.207-1.786a1.41 1.41 0 0 0-1.107-1.473zm-2.257-2.062h.885c.993 0 1.237.289 1.237.774 0 .513-.325.864-1.1.864h-1.02zm1.092 4.421h-1.092v-1.879h.966c.921 0 1.354.279 1.354.94.001.596-.387.939-1.228.939z"/>
    <path data-name="Path 372" d="M88.001 36.529h1.794v5.31h1.04v-5.31h1.785v-.911h-4.622z"/>
    <path data-name="Path 373" d="m140.781 39.901-2.57-4.283h-.9v6.221h1v-4.228l2.543 4.228h.922v-6.221h-1z"/>
    <path data-name="Path 374" d="M131.038 36.529h1.8v5.31h1.042v-5.31h1.786v-.911h-4.623z"/>
    <path data-name="Path 375" d="M129.743 37.476c0-1.236-.854-1.858-2.288-1.858h-2.116v6.222h1.041v-2.525h1.21l1.2 2.525h1.151l-1.322-2.7a1.622 1.622 0 0 0 1.124-1.664zm-2.36.938h-1v-1.885h1c.885 0 1.318.243 1.318.947s-.433.939-1.318.939z"/>
    <path data-name="Path 376" d="M154.172 37.476c0-1.236-.852-1.858-2.288-1.858h-2.112v6.222h1.041v-2.525h1.21l1.2 2.525h1.15l-1.322-2.7a1.622 1.622 0 0 0 1.121-1.664zm-2.36.938h-1v-1.885h1c.885 0 1.318.243 1.318.947s-.431.939-1.316.939z"/>
    <path data-name="Path 377" d="m120.569 35.619-2.164 6.221h1.115l.424-1.288h2.246l.424 1.288h1.109l-2.164-6.221zm-.334 4.033.83-2.517.83 2.517z"/>
    <path data-name="Path 378" d="m95.469 35.619-2.164 6.221h1.118l.424-1.288h2.246l.423 1.288h1.11l-2.165-6.221zm-.334 4.033.83-2.517.829 2.517z"/>
    <path data-name="Path 379" d="M144.061 41.84h3.81v-.9h-2.769v-1.869h2.5v-.9h-2.5V36.53h2.769v-.911h-3.81z"/>
    <path data-name="Path 380" d="M115.406 35.618h-2.117v6.222h1.043v-2.269h1.075c1.443 0 2.288-.719 2.288-1.985-.001-1.282-.854-1.968-2.289-1.968zm-.108 3.055h-.966V36.53h.966c.957 0 1.354.379 1.354 1.058 0 .714-.398 1.083-1.354 1.083z"/>
    <path data-name="Path 381" d="M104.771 35.619h-1.043v6.221h3.81v-.9h-2.768z"/>
    <path data-name="Rectangle 174" d="M100.33 35.619h1.041v6.221h-1.041z"/>
    <path data-name="Path 382" d="M182.694.29h-3.543l-7.73 22.225h3.994l1.514-4.606h8.02l1.514 4.606h3.962zm-4.735 14.4 2.963-8.986 2.963 8.986z"/>
    <path data-name="Path 383" d="M38.891 13.665V.459h-3.736v13.238c0 4.252-1.514 6.023-4.574 6.023s-4.574-1.772-4.574-6.023V.459h-3.736v13.238c0 6.539 3.382 9.276 8.31 9.276s8.31-2.737 8.31-9.308z"/>
    <path data-name="Path 384" d="M97.807 19.294h-9.888v-6.667h8.922V9.406h-8.922V3.548h9.888V.295H84.183v22.224h13.625z"/>
    <path data-name="Path 385" d="M7.73.459 0 22.683h3.998l1.514-4.606h8.02l1.514 4.606h3.962L11.278.459zm-1.192 14.4 2.96-8.989 2.963 8.986z"/>
    <path data-name="Path 386" d="M120.244 22.515V.29h-3.607v15.3L107.489.29h-3.221v22.224h3.607V7.409l9.051 15.106z"/>
    <path data-name="Path 387" d="M77.924 22.515V.29h-3.737v9.115h-8.5V.29h-3.74v22.224h3.736v-9.888h8.5v9.888z"/>
    <path data-name="Path 388" d="M161.147 3.253c2.448 0 3.9 1.224 4.477 3.93h3.607C168.49 2.352 165.559 0 161.146 0c-4.96 0-8.31 3-8.31 9.985v2.834c0 6.99 3.35 9.985 8.31 9.985 4.413 0 7.311-2.19 8.052-7.183h-3.575c-.58 2.706-1.933 3.93-4.477 3.93-2.963 0-4.574-2-4.574-6.732V9.985c.001-4.799 1.61-6.732 4.575-6.732z"/>
    <path data-name="Rectangle 175" d="M143.833.29h3.736v22.224h-3.736z"/>
    <path data-name="Path 389" d="M48.49 22.6h3.736V3.629h5.254L58.569.376H42.837v3.253h5.648z"/>
    <path data-name="Path 390" d="M134.058 22.6V3.629h5.616V.376h-14.667l-1.1 3.253h6.41V22.6z"/>
</svg>
