<?xml version="1.0" encoding="UTF-8"?><svg id="a" xmlns="http://www.w3.org/2000/svg" width="186" height="41" viewBox="0 0 186 41"><path d="M0,33.54v-6.63c3.65,0,6.63-2.97,6.63-6.63v-6.63h6.63v6.63c0,7.31-5.94,13.25-13.25,13.25h0Z"/><path d="M27.67,33.54c-7.31,0-13.25-5.94-13.25-13.25V7.03h6.63v13.25c0,3.65,2.97,6.63,6.63,6.63v6.63h0Z"/><path d="M41.43,33.54l8.16-19.97h3.42l8.19,19.97h-3.54l-2.02-4.93h-8.64l-2.03,4.93h-3.54ZM48.22,25.58h6.19l-3.08-7.59-3.11,7.59h0Z"/><path d="M61.74,28.43v-10.01h3.37v9.87c0,1.71,1.2,2.71,2.99,2.71,2.31,0,3.68-1.51,3.71-3.45v-9.13h3.37v15.12h-2.71l-.26-2.2c-.88,1.63-2.68,2.62-4.79,2.62-3.59,0-5.68-2.25-5.68-5.53h0Z"/><path d="M84.75,33.54c-3.28,0-5.05-1.63-5.05-4.62v-7.64h-2.65v-2.85h2.65v-4.75h3.37v4.75h3.91v2.85h-3.91v7.42c0,1.28.66,2,1.91,2h1.71v2.85h-1.94Z"/><path d="M88.93,33.54V12.14h3.37v7.9c1.03-1.25,2.77-2.08,4.74-2.08,3.22,0,5.33,2.17,5.33,5.56v10.01h-3.37v-9.84c0-1.68-1.11-2.8-2.91-2.8-2.28,0-3.77,1.51-3.79,3.48v9.16h-3.37Z"/><path d="M104.57,26.04c0-4.99,3.28-8.07,7.5-8.07s7.13,2.99,7.22,7.9v.8h-11.35c.23,2.65,1.88,4.45,4.45,4.45,1.74,0,3.05-.86,3.57-2.37h3.28c-.77,3.25-3.31,5.22-6.87,5.22-4.62,0-7.79-3.31-7.79-7.93h0ZM115.81,24.3c-.43-2.17-1.77-3.48-3.74-3.48s-3.48,1.31-3.99,3.48h7.73,0Z"/><path d="M121.7,33.54v-15.12h2.71l.29,2.23c.94-1.57,2.85-2.68,5.11-2.68,3.22,0,5.33,2.17,5.33,5.56v10.01h-3.37v-9.84c0-1.68-1.11-2.8-3-2.8-2.2,0-3.68,1.51-3.71,3.48v9.16h-3.37Z"/><path d="M144.49,33.54c-3.28,0-5.05-1.63-5.05-4.62v-7.64h-2.65v-2.85h2.65v-4.75h3.37v4.75h3.91v2.85h-3.91v7.42c0,1.28.66,2,1.91,2h1.71v2.85h-1.94Z"/><path d="M148.3,14.41c0-1.11.85-1.96,1.96-1.96s1.96.85,1.96,1.96-.83,1.99-1.96,1.99-1.96-.88-1.96-1.99ZM148.58,33.54v-15.12h3.37v15.12h-3.37Z"/><path d="M154.18,25.86c0-4.96,3.34-7.9,7.73-7.9,4.14,0,6.93,2.54,7.22,6.3h-3.31c-.31-2.08-1.8-3.42-3.94-3.42-2.57,0-4.28,1.94-4.28,5.02,0,3.31,1.88,5.22,4.39,5.22,2.05,0,3.48-1.31,3.82-3.48h3.31c-.4,3.91-3.11,6.36-7.13,6.36-4.93,0-7.82-3.54-7.82-8.1h0Z"/><path d="M170.68,29.34c.03-3.54,3.54-4.28,6.47-4.62,2.28-.26,3.97-.34,3.99-1.54-.03-1.48-1.17-2.45-3.11-2.45s-3.42,1.08-3.62,2.65h-3.39c.31-3.19,3.17-5.42,7.07-5.42s6.33,2.23,6.33,5.45v6.85c0,.43.23.66.74.66h.83v2.62h-1.6c-1.54,0-2.48-.63-2.74-1.77-.06-.14-.11-.34-.14-.51-.88,1.63-2.54,2.6-5.11,2.6-3.48,0-5.76-1.68-5.73-4.51h0ZM181.15,27.86v-2.11c-.57.88-2.03,1.08-3.62,1.28-1.88.23-3.45.49-3.45,2.08,0,1.31,1.05,2.08,3.02,2.08,2.31,0,4.05-1.31,4.05-3.34Z"/></svg>