<?xml version="1.0" encoding="UTF-8"?><svg id="a" xmlns="http://www.w3.org/2000/svg" viewBox="0 0 192 43"><path id="b" d="M81.69,38.01c0-1.24-.85-1.86-2.29-1.86h-2.12v6.22h1.04v-2.53h1.21l1.2,2.53h1.15l-1.32-2.7c.71-.23,1.18-.92,1.12-1.66Zm-2.36,.94h-1v-1.89h1c.89,0,1.32,.24,1.32,.95s-.43,.94-1.32,.94h0Z"/><path id="c" d="M83.7,42.38h3.81v-.9h-2.77v-1.87h2.5v-.9h-2.5v-1.64h2.77v-.91h-3.81v6.22Z"/><path id="d" d="M62.96,36.16l-2.16,6.22h1.12l.42-1.29h2.25l.42,1.29h1.11l-2.16-6.22h-.99Zm-.33,4.03l.83-2.52,.83,2.52h-1.66Z"/><path id="e" d="M39.19,40.1h1.23c-.07,.98-.47,1.45-1.26,1.45s-1.28-.54-1.28-1.88v-.79c0-1.34,.45-1.88,1.28-1.88,.65-.03,1.2,.45,1.25,1.1h1.01c-.06-1.17-1.07-2.07-2.24-2.01,0,0-.01,0-.02,0-1.39,0-2.32,.84-2.32,2.84v.75c0,1.95,.93,2.79,2.32,2.79s2.29-.84,2.29-2.79v-.48h-2.26v.91Z"/><path id="f" d="M44.51,36.16h-1.04v6.22h3.81v-.9h-2.77v-5.32Z"/><path id="g" d="M68.77,36.16h-1.04v6.22h3.81v-.9h-2.77v-5.32Z"/><path id="h" d="M50.77,36.08c-1.39,0-2.32,.84-2.32,2.79v.79c0,1.95,.93,2.79,2.32,2.79s2.33-.84,2.33-2.79v-.79c0-1.95-.93-2.79-2.33-2.79Zm1.29,3.59c0,1.34-.46,1.88-1.29,1.88s-1.28-.54-1.28-1.88v-.79c0-1.34,.45-1.88,1.28-1.88s1.29,.54,1.29,1.88v.79Z"/><path id="i" d="M58.43,39.12c.56-.21,.93-.75,.91-1.35,0-1.07-.75-1.61-2.21-1.61h-2v6.22h2.2c1.61,0,2.21-.85,2.21-1.79,.05-.7-.42-1.32-1.11-1.47Zm-2.26-2.06h.89c.99,0,1.24,.29,1.24,.77,0,.51-.33,.86-1.1,.86h-1.02v-1.64Zm1.09,4.42h-1.09v-1.88h.97c.92,0,1.35,.28,1.35,.94,0,.6-.39,.94-1.23,.94h0Z"/><path id="j" d="M88.79,37.07h1.79v5.31h1.04v-5.31h1.79v-.91h-4.62v.91Z"/><path id="k" d="M141.57,40.44l-2.57-4.28h-.9v6.22h1v-4.23l2.54,4.23h.92v-6.22h-1v4.28Z"/><path id="l" d="M131.83,37.07h1.8v5.31h1.04v-5.31h1.79v-.91h-4.62v.91Z"/><path id="m" d="M130.53,38.01c0-1.24-.85-1.86-2.29-1.86h-2.12v6.22h1.04v-2.53h1.21l1.2,2.53h1.15l-1.32-2.7c.71-.23,1.18-.92,1.12-1.66Zm-2.36,.94h-1v-1.89h1c.89,0,1.32,.24,1.32,.95s-.43,.94-1.32,.94h0Z"/><path id="n" d="M154.96,38.01c0-1.24-.85-1.86-2.29-1.86h-2.11v6.22h1.04v-2.53h1.21l1.2,2.53h1.15l-1.32-2.7c.71-.23,1.18-.92,1.12-1.66Zm-2.36,.94h-1v-1.89h1c.89,0,1.32,.24,1.32,.95s-.43,.94-1.32,.94h0Z"/><path id="o" d="M121.36,36.16l-2.16,6.22h1.11l.42-1.29h2.25l.42,1.29h1.11l-2.16-6.22h-.99Zm-.33,4.03l.83-2.52,.83,2.52h-1.66Z"/><path id="p" d="M96.26,36.16l-2.16,6.22h1.12l.42-1.29h2.25l.42,1.29h1.11l-2.17-6.22h-.99Zm-.33,4.03l.83-2.52,.83,2.52h-1.66Z"/><path id="q" d="M144.85,42.38h3.81v-.9h-2.77v-1.87h2.5v-.9h-2.5v-1.64h2.77v-.91h-3.81v6.22Z"/><path id="r" d="M116.19,36.16h-2.12v6.22h1.04v-2.27h1.08c1.44,0,2.29-.72,2.29-1.98,0-1.28-.85-1.97-2.29-1.97Zm-.11,3.05h-.97v-2.14h.97c.96,0,1.35,.38,1.35,1.06,0,.71-.4,1.08-1.35,1.08h0Z"/><path id="s" d="M105.56,36.16h-1.04v6.22h3.81v-.9h-2.77v-5.32Z"/><rect id="t" x="101.12" y="36.16" width="1.04" height="6.22"/><path id="u" d="M183.48,.83h-3.54l-7.73,22.22h3.99l1.51-4.61h8.02l1.51,4.61h3.96L183.48,.83Zm-4.73,14.4l2.96-8.99,2.96,8.99h-5.93Z"/><path id="v" d="M39.68,14.2V1h-3.74V14.24c0,4.25-1.51,6.02-4.57,6.02s-4.57-1.77-4.57-6.02V1h-3.74V14.24c0,6.54,3.38,9.28,8.31,9.28s8.31-2.74,8.31-9.31Z"/><path id="w" d="M98.59,19.83h-9.89v-6.67h8.92v-3.22h-8.92V4.09h9.89V.83h-13.62V23.06h13.62v-3.23Z"/><path id="x" d="M8.52,1L.79,23.22h4l1.51-4.61H14.32l1.51,4.61h3.96L12.07,1h-3.55Zm-1.19,14.4l2.96-8.99,2.96,8.99H7.33Z"/><path id="y" d="M121.03,23.05V.83h-3.61v15.3L108.28,.83h-3.22V23.05h3.61V7.95l9.05,15.11h3.32Z"/><path id="z" d="M78.71,23.05V.83h-3.74V9.94h-8.5V.83h-3.74V23.05h3.74V13.16h8.5v9.89h3.74Z"/><path id="aa" d="M161.93,3.79c2.45,0,3.9,1.22,4.48,3.93h3.61c-.74-4.83-3.67-7.18-8.08-7.18-4.96,0-8.31,3-8.31,9.98v2.83c0,6.99,3.35,9.98,8.31,9.98,4.41,0,7.31-2.19,8.05-7.18h-3.58c-.58,2.71-1.93,3.93-4.48,3.93-2.96,0-4.57-2-4.57-6.73v-2.83c0-4.8,1.61-6.73,4.58-6.73Z"/><rect id="ab" x="144.62" y=".83" width="3.74" height="22.22"/><path id="ac" d="M49.28,23.14h3.74V4.17h5.25l1.09-3.25h-15.73v3.25h5.65V23.14Z"/><path id="ad" d="M134.85,23.14V4.17h5.62V.92h-14.67l-1.1,3.25h6.41V23.14h3.74Z"/></svg>