<svg xmlns="http://www.w3.org/2000/svg" width="212.563" height="97.983" viewBox="0 0 212.563 97.983"><g transform="translate(20120 16222)"><path d="M214.527,63.53a9.133,9.133,0,0,0-8.568,4.836h-.172L205.66,64h-2.59V92.43h2.762V80.846h.208a9.138,9.138,0,0,0,8.486,4.845c6.34,0,10.27-4.927,10.27-11.076S220.857,63.53,214.527,63.53Zm-.507,19.39c-5.09,0-8.151-3.623-8.151-8.314s3.1-8.323,8.151-8.323c4.927,0,7.807,3.523,7.807,8.323S218.946,82.92,214.019,82.92Z" transform="translate(-20139.158 -16227.993)"/><path d="M59.128,78.763V71.971c0-4.664-1.992-8.441-8.912-8.441a17.95,17.95,0,0,0-7.934,1.911v2.717a16.954,16.954,0,0,1,7.762-1.911c5.262,0,6.24,2.418,6.34,5.986h-6.34c-6.657,0-9.845,2.59-9.845,6.874,0,4.528,3.224,6.666,7.426,6.666a9.727,9.727,0,0,0,8.577-4.8h.163c.172,3.143,1.7,4.628,4.528,4.628a7.39,7.39,0,0,0,2.925-.552V82.5a7.988,7.988,0,0,1-2.373.417C59.21,82.92,59.128,81.525,59.128,78.763ZM48.052,83.092c-3.224,0-4.836-1.694-4.836-4.112,0-3.36,2.5-4.42,7.082-4.42h6.068C56.321,81.272,51.367,83.092,48.052,83.092Z" transform="translate(-20123.793 -16227.993)"/><path d="M72.779,57.11H70.062V63.4H66.63V65.85h3.4V78.583c0,4.882,2.418,6.494,6.34,6.494a11.248,11.248,0,0,0,4.075-.77V81.726a9.383,9.383,0,0,1-3.7.679c-3.143,0-3.949-1.358-3.949-4.075V65.85H80.55V63.4H72.779Z" transform="translate(-20126.285 -16227.388)"/><path d="M231.634,58.545c0-.679-.471-1.1-1.277-1.1H228.7v3.777h.643V59.6h.761l.978,1.612h.715l-1.014-1.657a1,1,0,0,0,.851-1.014Zm-2.291.552v-1.1h1.014c.344,0,.634.127.634.552s-.29.552-.634.552Z" transform="translate(-20141.576 -16227.419)"/><path d="M229.842,55.139a3.976,3.976,0,1,0,4.03,3.994,3.84,3.84,0,0,0-4.03-3.994Zm0,7.245a3.3,3.3,0,1,1,3.306-3.269,3.2,3.2,0,0,1-3.306,3.288Z" transform="translate(-20141.313 -16227.201)"/><path d="M28.854,75.715c0,4.927-1.522,7.3-5.6,7.3-3.623,0-6.068-2.418-6.068-6.666V64.05H14.427v12.3c0,4.248-2.463,6.666-6.068,6.666-4.075,0-5.6-2.373-5.6-7.3V64.05H0v12.3c0,5.688,2.635,9.337,8.232,9.337,3.432,0,6.34-1.657,7.472-4.791h.254c1.1,3.134,3.985,4.791,7.426,4.791,5.6,0,8.232-3.623,8.232-9.337V64.05H28.9Z" transform="translate(-20120 -16228.042)"/><path d="M124.689,66.59V63.664a8.441,8.441,0,0,0-8.694,5.008h-.217l-.127-4.664h-2.59V85.219h2.717V73.128C117.135,67.74,121.383,66.254,124.689,66.59Z" transform="translate(-20130.666 -16228.001)"/><path d="M103.046,80.846a13.929,13.929,0,0,1-7.517,1.992c-4.882,0-7.716-2.717-8.151-6.874h18c.634-7.245-3.74-12.435-10.189-12.435s-10.9,4.583-10.9,11.122c0,6.276,4.075,11.031,11.167,11.031a15.152,15.152,0,0,0,7.589-1.956Zm-7.97-14.563c3.985,0,6.91,2.635,7.336,7.245H87.261C87.65,68.919,90.657,66.283,95.076,66.283Z" transform="translate(-20127.951 -16227.993)"/><path d="M184.269,63.53c-7,0-10.949,5.262-10.949,11.076s3.949,11.085,10.949,11.085,10.949-5.262,10.949-11.076S191.225,63.53,184.269,63.53Zm0,19.354c-5.226,0-7.979-3.867-7.979-8.278s2.717-8.278,7.979-8.278,7.979,3.867,7.979,8.278S189.441,82.884,184.269,82.884Z" transform="translate(-20136.352 -16227.993)"/><path d="M148.155,77.927V54.67h-2.717V67.449h-.127c-1.567-2.889-4.411-4.755-8.531-4.755-6.34,0-10.27,4.918-10.27,11.076s3.858,11.085,10.225,11.085a9.129,9.129,0,0,0,8.531-4.927h.127c.091,3.269,1.657,4.8,4.528,4.8a7.336,7.336,0,0,0,2.889-.552V81.668a8.033,8.033,0,0,1-2.373.417C148.237,82.084,148.155,80.69,148.155,77.927Zm-10.868,4.157c-4.927,0-7.816-3.514-7.816-8.314s2.889-8.323,7.816-8.323c5.09,0,8.151,3.623,8.151,8.323s-3.088,8.314-8.187,8.314Z" transform="translate(-20131.936 -16227.157)"/><path d="M162.845,68.673h-.208l-.127-4.664h-2.59V85.219h2.717V73.129c1.322-5.434,5.561-6.874,8.875-6.539V63.665a8.45,8.45,0,0,0-8.667,5.008Z" transform="translate(-20135.086 -16228.001)"/><path d="M106.056,23.373a37.131,37.131,0,0,0-4.528,0c-4.03.181-5.651,2.509-5.832,5.651s-.172,5.651-.082,8.794c.082,2.6.715,4.845,3.949,4.845,1.811,0,5.561-1.811,8.341-3.233,3.143-1.612,3.949-3.224,4.03-5.923a38.291,38.291,0,0,0-.082-4.483C111.707,25.881,110.095,23.554,106.056,23.373Zm.987,14.808c-2.029,1.078-5.57,2.962-7.363,2.962s-2.418-1.259-2.509-3.414c0-3.143,0-5.38.091-8.432.181-2.78,1.349-4.22,4.528-4.311a34.9,34.9,0,0,1,4.13,0c3.143.091,4.3,1.531,4.528,4.311.091,1.7.091,2.871.091,3.858C110.448,35.753,109.823,36.74,107.043,38.18Z" transform="translate(-20129.014 -16224.198)"/><path d="M125.707,23.277a36.942,36.942,0,0,0-4.392.091c-3.143.181-5.434,1.811-5.651,5.832a37.014,37.014,0,0,0,0,4.528c.172,4.039,2.509,5.651,5.651,5.832s5.651.181,8.794.091c2.509-.091,4.845-.715,4.845-3.949,0-1.811-1.811-5.561-3.233-8.341C130.108,24.174,128.5,23.368,125.707,23.277Zm4.22,14.808c-3.052,0-5.38,0-8.432-.091-2.717-.181-4.13-1.349-4.311-4.528a31.27,31.27,0,0,1,0-4.121c.181-3.143,1.612-4.311,4.311-4.483,1.712-.027,2.871-.027,3.949-.027,2.509,0,3.5.634,4.927,3.414,1.078,2.065,3.052,5.561,3.052,7.354S132.082,37.994,129.927,38.085Z" transform="translate(-20130.904 -16224.193)"/><path d="M101.428,19.7a37.386,37.386,0,0,0,4.4-.091c3.134-.091,5.434-1.811,5.651-5.832a36.988,36.988,0,0,0,0-4.483c-.181-3.949-2.518-5.66-5.651-5.832s-5.66-.091-8.794-.091c-2.518.091-4.845.806-4.845,3.949,0,1.811,1.811,5.561,3.224,8.341C97.035,18.891,98.647,19.606,101.428,19.7ZM97.216,4.98c3.043-.091,5.38-.091,8.432.091,2.717.091,4.13,1.259,4.3,4.483a30.052,30.052,0,0,1,0,4.039c-.172,3.143-1.612,4.311-4.3,4.528-1.7.082-2.871.082-3.949.082-2.518,0-3.5-.625-4.936-3.405-1.078-2.065-3.052-5.434-3.052-7.354S95.061,4.98,97.216,4.98Z" transform="translate(-20128.697 -16222.315)"/><path d="M121.38,19.291a37.013,37.013,0,0,0,4.483,0c4.039-.181,5.651-2.509,5.832-5.651s.181-5.651.091-8.794C131.7,2.328,131.071,0,127.837,0c-1.811,0-5.561,1.884-8.341,3.233-3.143,1.612-3.949,3.224-4.039,6a37.059,37.059,0,0,0,.091,4.4C115.738,16.782,117.35,19.109,121.38,19.291ZM120.4,4.574c2.065-1.078,5.561-2.962,7.354-2.962s2.427,1.259,2.427,3.414c.091,3.052.091,5.38,0,8.432-.181,2.78-1.349,4.13-4.528,4.311a34.74,34.74,0,0,1-4.121,0c-3.143-.181-4.311-1.531-4.528-4.311-.091-1.7-.091-2.871-.091-3.949C116.988,7,117.622,6.014,120.4,4.574Z" transform="translate(-20130.889 -16222)"/><path d="M143.611,100.387c0-1.3-.688-2.717-3.143-2.717H135.94v9.238h1.277v-3.795h2.8l2.427,3.795h1.485l-2.5-3.958a2.536,2.536,0,0,0,2.183-2.563Zm-6.34,1.685V98.748h3.061c1.5,0,1.983.77,1.983,1.639s-.48,1.685-2,1.685Z" transform="translate(-20132.824 -16231.214)"/><rect width="1.277" height="9.238" transform="translate(-19982.666 -16133.535)"/><path d="M185.943,97.69h-1.675l-5.18,4.872V97.69H177.81v9.229h1.277v-2.862l2.128-1.938,3.514,4.8H186.3l-4.139-5.706Z" transform="translate(-20136.773 -16231.216)"/><path d="M106.589,97.4a4.879,4.879,0,1,0,5.008,4.882A4.638,4.638,0,0,0,106.589,97.4Zm0,8.685a3.813,3.813,0,1,1,3.623-3.8,3.5,3.5,0,0,1-3.623,3.813Z" transform="translate(-20129.584 -16231.188)"/><path d="M94.83,100.387c0-1.3-.688-2.717-3.152-2.717H87.15v9.238h1.268v-3.795h2.8l2.436,3.795h1.512l-2.536-3.958a2.536,2.536,0,0,0,2.2-2.563Zm-6.394,1.685V98.748h3.106c1.512,0,1.992.77,1.992,1.639s-.48,1.685-2,1.685Z" transform="translate(-20128.221 -16231.214)"/><path d="M168.055,104.382v1.177h0a4.193,4.193,0,0,0-.589-1.06l-5.108-6.82H160.81v9.238h1.15V98.993h0a5.053,5.053,0,0,0,.589,1.023l5.2,6.9h1.467V97.68h-1.141Z" transform="translate(-20135.17 -16231.215)"/><path d="M74.828,98.478a2.962,2.962,0,0,1,3.179,2.391l1.322-.127C78.94,98.7,77.436,97.4,74.9,97.4a4.594,4.594,0,0,0-4.972,4.863,4.528,4.528,0,0,0,4.918,4.891,4.216,4.216,0,0,0,4.474-3.143l-1.259-.226a3.034,3.034,0,0,1-3.188,2.309,3.5,3.5,0,0,1-3.623-3.813C71.251,99.972,72.591,98.478,74.828,98.478Z" transform="translate(-20126.596 -16231.188)"/><path d="M48.036,104.844a5.135,5.135,0,0,0-.263.806h0a3.75,3.75,0,0,0-.263-.806L44.522,97.68h-1.9v9.238h1.159V98.767h0a8.438,8.438,0,0,0,.29.906l3.07,7.245H48.4l3.088-7.245c.127-.3.254-.77.308-.906h.054a5.551,5.551,0,0,0-.045.906v7.245h1.123V97.68H51.061Z" transform="translate(-20124.021 -16231.215)"/><path d="M123.357,97.68H119.39v9.238h3.967a4.55,4.55,0,0,0,4.9-4.691C128.256,99.4,126.282,97.68,123.357,97.68Zm0,8.151H120.64V98.749h2.608a3.276,3.276,0,0,1,3.623,3.478,3.36,3.36,0,0,1-3.514,3.632Z" transform="translate(-20131.264 -16231.215)"/><rect width="1.277" height="9.238" transform="translate(-20064.066 -16133.535)"/></g></svg>