<?xml version="1.0" standalone="no"?>
<!DOCTYPE svg PUBLIC "-//W3C//DTD SVG 20010904//EN"
 "http://www.w3.org/TR/2001/REC-SVG-20010904/DTD/svg10.dtd">
<svg version="1.0" xmlns="http://www.w3.org/2000/svg"
 width="700.000000pt" height="700.000000pt" viewBox="0 0 700.000000 700.000000"
 preserveAspectRatio="xMidYMid meet">
<metadata>
Created by potrace 1.14, written by Peter Selinger 2001-2017
</metadata>
<g transform="translate(0.000000,700.000000) scale(0.100000,-0.100000)"
fill="#000000" stroke="none">
<path d="M0 3500 l0 -3500 3500 0 3500 0 0 3500 0 3500 -3500 0 -3500 0 0
-3500z m4914 12 c533 -1533 971 -2793 974 -2800 3 -9 -100 -12 -495 -12 l-499
0 -190 577 -190 578 -1012 3 -1011 2 -191 -580 -191 -580 -504 0 -504 0 29 83
c16 45 452 1299 969 2787 518 1488 943 2711 946 2718 3 9 103 12 452 12 l448
0 969 -2788z"/>
<path d="M3127 3815 c-202 -613 -370 -1122 -373 -1130 -5 -13 78 -15 740 -15
410 0 746 3 746 7 0 10 -731 2225 -739 2240 -4 7 -172 -489 -374 -1102z"/>
</g>
</svg>
